<svg width="27" height="38" viewBox="0 0 27 38" fill="none" xmlns="http://www.w3.org/2000/svg">
<path d="M22.534 15.7939C20.2371 13.4875 17.0572 12.0448 13.5256 12.0448C10.0146 12.0448 6.84514 13.4875 4.55164 15.7939C2.25814 18.1002 0.844101 21.2684 0.844101 24.721C0.844101 31.7814 6.50197 37.437 13.5256 37.437C20.5889 37.437 26.245 31.7832 26.2468 24.721C26.245 21.2684 24.831 18.1002 22.534 15.7939ZM13.5256 35.1754C7.79875 35.1754 3.10656 30.4852 3.10656 24.721C3.10656 18.9948 7.79875 14.3063 13.5256 14.3063C19.2921 14.3063 23.9843 18.9948 23.9843 24.721C23.9843 30.4835 19.2921 35.1737 13.5256 35.1754Z" fill="white"/>
<path d="M16.4054 21.8803C15.6725 21.1478 14.662 20.6961 13.5446 20.6961C13.2445 20.6961 12.9565 20.7392 12.6755 20.8013C13.0134 21.1236 13.2342 21.5683 13.2342 22.0734C13.2342 23.0576 12.4358 23.8557 11.4528 23.8557C10.7958 23.8557 10.2233 23.4989 9.91463 22.9715C9.65251 23.5075 9.49731 24.1039 9.49731 24.7417C9.49731 25.8587 9.95084 26.8688 10.682 27.6014C11.4149 28.334 12.4254 28.7856 13.5428 28.7856C14.6603 28.7856 15.6708 28.3322 16.4037 27.6014C17.1366 26.8688 17.5884 25.8587 17.5884 24.7417C17.5918 23.623 17.1383 22.6112 16.4054 21.8803Z" fill="white"/>
<path d="M2.75823 4.98956C2.53922 4.77064 2.25296 4.66205 1.96498 4.66205H1.96154C1.67701 4.66205 1.3942 4.77064 1.17864 4.98094L1.15968 4.9999C0.94757 5.21709 0.840653 5.49806 0.838928 5.78247V5.78419V5.78592C0.838928 6.03413 0.925154 6.2789 1.0907 6.48403L1.15105 6.55987L1.08725 6.62365L1.12346 6.65985L1.18554 6.59779L4.52232 9.9332C4.7396 10.1521 5.02758 10.2607 5.31557 10.2607H5.31729C5.60699 10.2607 5.89497 10.1504 6.11225 9.9332C6.32953 9.71601 6.43989 9.42815 6.43989 9.14029V9.13684C6.43989 8.84725 6.32953 8.55939 6.11225 8.3422L2.75823 4.98956Z" fill="white"/>
<path d="M25.7518 6.62019L25.7605 6.61157C25.9674 6.3961 26.0726 6.11686 26.0726 5.83761V5.83589C26.0726 5.54803 25.9622 5.26017 25.7449 5.04125C25.5277 4.82406 25.2397 4.71375 24.9517 4.71375H24.9483C24.6603 4.71375 24.3723 4.82406 24.155 5.04125L20.801 8.3939C20.5837 8.61109 20.4751 8.89895 20.4751 9.18681V9.18854C20.4751 9.47812 20.5837 9.76426 20.801 9.98317C21.02 10.2004 21.3062 10.309 21.596 10.3107H21.5977H21.5994C21.8874 10.3107 22.1736 10.2021 22.3909 9.98662L25.7484 6.63225L25.7518 6.62019Z" fill="white"/>
<path d="M14.5827 1.69206L14.581 1.68172V1.66965C14.5758 1.36972 14.4533 1.09737 14.2568 0.897422L14.2516 0.89225C14.0498 0.690574 13.7739 0.566466 13.4721 0.563019H13.4411C13.1393 0.56819 12.8651 0.690574 12.6651 0.890527L12.6634 0.89225C12.4599 1.09565 12.334 1.37662 12.334 1.68516V6.42713C12.334 6.73568 12.4599 7.01492 12.6651 7.22005L12.6668 7.22177C12.872 7.42517 13.1514 7.55273 13.4601 7.55273C13.7601 7.55273 14.0309 7.43207 14.2343 7.23901L14.2464 7.22694L14.2533 7.2235L14.255 7.22177L14.2585 7.21315L14.2706 7.19936C14.4637 6.99769 14.5827 6.72706 14.5844 6.43058L14.5827 1.69206Z" fill="white"/>
</svg>
